:SAMPLES-PER-SECOND 30
:FRAME-RANGE 1-564
:FULLY-SPECIFIED
:DEGREES
177
root  27.3501 40.3538 82.3577 169.247 -59.2405 -179.291
RightUpLeg  11.0906 0.0243029 4.66284
RightLeg  3.04128 -13.1562 -2.11684
RightFoot  -5.46807 -0.154773 2.29147
RightToes  -1.74624e-010 0 -3.6325e-017
Spine  13.1867 6.20111 10.4488
Spine1  -2.56641 9.47032 -12.1583
HEad  13.689 -7.74309 -2.69526
LeftShoulder1  2.78231 -4.21949 -29.9989
LeftArm  7.16924 9.42185 -6.26589
LeftForeArm  -5.10028 -76.0238 -62.0913
LeftHand  -0.261008 1.99843 8.7377
RightShoulder  12.2354 17.5166 50.9152
RightArm  4.79847 11.3976 -2.6903
RightForeArm  -25.5502 63.8791 26.3739
RightHand  2.80918 13.5876 16.5168
LeftUpLeg  11.5871 1.27813 -0.843125
LeftLeg  1.13828 -23.4131 4.48348
LeftFoot  -6.9076 -0.147813 4.89095
LeftToes  -6.43926e-010 8.38805e-011 -3.16407e-011
178
root  27.3455 40.3182 82.2503 168.941 -57.2035 -179.491
RightUpLeg  8.90016 0.806425 4.79336
RightLeg  8.55821 -11.3457 -3.09729
RightFoot  -6.4227 -0.195271 3.52783
RightToes  -1.74624e-010 0 -3.6325e-017
Spine  13.4916 6.04309 10.2337
Spine1  -2.65788 9.25594 -12.0101
HEad  14.137 -10.2901 -2.88966
LeftShoulder1  2.77241 -4.07256 -30.5736
LeftArm  7.22292 11.6823 -6.47712
LeftForeArm  3.25805 -76.729 -68.3966
LeftHand  -0.318628 1.51308 9.44124
RightShoulder  11.8623 16.8676 50.9429
RightArm  4.88076 11.0392 -2.77716
RightForeArm  -24.0395 64.102 26.5603
RightHand  2.99559 14.1325 17.1193
LeftUpLeg  12.2252 2.10511 -0.248254
LeftLeg  1.6324 -22.1562 3.78098
LeftFoot  -7.44879 -0.128181 5.08961
LeftToes  -6.43926e-010 8.38805e-011 -3.16407e-011
179
root  27.374 40.2893 82.1573 168.12 -55.225 -178.96
RightUpLeg  6.30541 1.42836 4.9436
RightLeg  14.2842 -9.11538 -3.0427
RightFoot  -6.45827 -0.241468 4.62935
RightToes  -1.74624e-010 0 -3.6325e-017
Spine  14.0398 5.61779 10.1036
Spine1  -3.15334 8.71063 -11.5863
HEad  14.8216 -12.494 -3.07892
LeftShoulder1  2.75165 -3.92281 -31.0353
LeftArm  6.91952 14.1131 -7.18598
LeftForeArm  8.3043 -76.9929 -71.1069
LeftHand  -0.338346 0.0720643 7.44015
RightShoulder  11.4898 16.2068 51.0039
RightArm  5.40586 10.6451 -2.77107
RightForeArm  -23.0113 64.0628 26.4362
RightHand  3.22699 14.6769 17.9404
LeftUpLeg  12.6148 2.97261 0.805731
LeftLeg  2.33629 -21.2999 3.07942
LeftFoot  -8.24185 -0.0858513 5.00511
LeftToes  -6.43926e-010 8.38805e-011 -3.16407e-011
180
root  27.3878 40.2416 82.0435 167.769 -52.6789 -178.843
RightUpLeg  3.3862 0.701182 4.50248
RightLeg  20.07 -4.74357 -2.12879
RightFoot  -5.9013 -0.336803 6.23644
RightToes  -1.74624e-010 0 -3.6325e-017
Spine  14.3509 5.3801 9.79285
Spine1  -3.31185 8.35242 -11.3091
HEad  15.2411 -14.4079 -3.14654
LeftShoulder1  2.75399 -3.83503 -31.5131
LeftArm  7.26336 15.9726 -7.1108
LeftForeArm  15.6638 -77.3359 -75.4516
LeftHand  -0.567189 1.12694 15.4235
RightShoulder  11.1096 15.4982 51.1603
RightArm  5.99316 10.0434 -2.99348
RightForeArm  -21.4933 64.2939 26.6287
RightHand  3.30473 15.3651 17.7508
LeftUpLeg  13.1009 3.82731 1.63653
LeftLeg  2.85777 -19.8248 2.48589
LeftFoot  -8.92371 -0.0548719 5.14383
LeftToes  -6.43926e-010 8.38805e-011 -3.16407e-011
181
root  27.3814 40.1732 81.8771 167.672 -49.8266 -179.009
RightUpLeg  0.532999 0.717438 3.58975
RightLeg  25.7599 0.53755 0.0608334
RightFoot  -5.70446 -0.594826 11.2568
RightToes  -1.74624e-010 0 -3.6325e-017
Spine  14.4372 5.30003 9.30567
Spine1  -3.18633 8.12467 -10.9981
HEad  15.3341 -15.835 -3.23559
LeftShoulder1  2.80234 -3.92176 -31.7276
LeftArm  7.91902 17.6953 -7.17908
LeftForeArm  18.9639 -77.5374 -80.867
LeftHand  -0.291784 1.89588 9.53066
RightShoulder  10.6305 14.6823 51.1581
RightArm  6.591 9.21022 -3.24613
RightForeArm  -20.4757 64.5939 26.9549
RightHand  3.32372 15.712 17.5519
LeftUpLeg  13.7646 4.88418 2.51698
LeftLeg  3.32089 -18.3494 1.73206
LeftFoot  -9.72681 -0.0169774 5.35729
LeftToes  -6.43926e-010 8.38805e-011 -3.16407e-011
182
root  27.3808 40.0794 81.696 167.664 -47.9684 -179.126
RightUpLeg  -1.72668 0.315687 2.27038
RightLeg  29.594 4.40115 2.47144
RightFoot  -7.24356 -0.59505 15.1656
RightToes  -1.74624e-010 0 -3.6325e-017
Spine  14.5577 4.75956 8.35635
Spine1  -3.33655 7.25953 -10.3756
HEad  15.5521 -16.6898 -3.66781
LeftShoulder1  2.84506 -3.99859 -31.9119
LeftArm  8.85816 18.8822 -7.28964
LeftForeArm  21.6765 -77.6147 -83.4436
LeftHand  -0.246028 2.32464 9.05296
RightShoulder  10.1381 13.8194 51.2245
RightArm  7.19548 8.39506 -3.45518
RightForeArm  -19.4958 64.5553 26.825
RightHand  3.45784 16.2631 17.789
LeftUpLeg  13.776 5.66682 3.18043
LeftLeg  4.60612 -17.5016 0.975685
LeftFoot  -10.7572 0.0362082 5.59544
LeftToes  -6.43926e-010 8.38805e-011 -3.16407e-011
183
root  27.3617 40.0517 81.4288 167.575 -45.2434 -179.015
RightUpLeg  -3.57264 1.29067 1.29344
RightLeg  31.5426 4.72923 2.89214
RightFoot  -9.59098 -0.291861 14.741
RightToes  -1.74624e-010 0 -3.6325e-017
Spine  14.3739 4.56777 8.03785
Spine1  -3.08079 6.91768 -9.85348
HEad  15.2929 -17.0017 -4.13729
LeftShoulder1  2.88376 -4.04329 -32.201
LeftArm  9.83219 18.9522 -7.58207
LeftForeArm  20.6526 -77.5847 -82.0863
LeftHand  -0.246839 2.51862 9.67769
RightShoulder  9.58135 12.818 51.386
RightArm  7.74694 7.55494 -3.71694
RightForeArm  -18.784 64.3785 26.5295
RightHand  3.62542 16.7787 18.213
LeftUpLeg  14.7661 6.63718 4.24899
LeftLeg  4.17793 -16.0531 0.604125
LeftFoot  -11.2054 0.0610486 5.37889
LeftToes  -6.43926e-010 8.38805e-011 -3.16407e-011
184
root  27.3297 40.0394 81.1212 167.612 -42.4791 -178.816
RightUpLeg  -5.04752 2.39461 0.103359
RightLeg  31.1009 2.40547 1.33154
RightFoot  -10.3624 -0.181141 12.8779
RightToes  -1.74624e-010 0 -3.6325e-017
Spine  14.0852 4.32358 7.99401
Spine1  -2.83977 6.59368 -9.43969
HEad  14.7139 -16.8682 -4.29964
LeftShoulder1  2.92697 -4.11495 -32.4093
LeftArm  10.6682 18.5399 -8.09939
LeftForeArm  18.0018 -77.4764 -78.6607
LeftHand  -0.260814 2.35784 9.72617
RightShoulder  9.02048 11.8282 51.5048
RightArm  8.35444 6.67828 -3.92082
RightForeArm  -18.2812 64.0615 26.0715
RightHand  3.71084 17.2655 18.234
LeftUpLeg  15.9675 7.39496 5.26266
LeftLeg  3.12392 -14.3845 0.507949
LeftFoot  -11.523 0.0772423 4.98981
LeftToes  -6.43926e-010 8.38805e-011 -3.16407e-011
185
root  27.2641 40.0707 80.8157 167.732 -40.3923 -178.729
RightUpLeg  -6.08826 2.43577 -1.8692
RightLeg  28.9259 -0.334833 -0.42981
RightFoot  -9.92263 -0.202882 10.893
RightToes  -1.74624e-010 0 -3.6325e-017
Spine  14.4167 3.71752 7.99606
Spine1  -3.27827 5.93866 -8.85475
HEad  13.9488 -16.4729 -4.45723
LeftShoulder1  2.97097 -4.19113 -32.6013
LeftArm  11.3852 18.0032 -8.87837
LeftForeArm  15.2432 -77.2952 -74.5911
LeftHand  -0.289922 1.91045 9.50605
RightShoulder  8.33788 10.6816 51.4627
RightArm  9.04972 5.65114 -4.34708
RightForeArm  -17.5285 64.2034 26.1947
RightHand  3.73345 17.5397 18.1204
LeftUpLeg  17.5746 7.65673 5.78637
LeftLeg  1.03139 -12.6601 0.854533
LeftFoot  -11.2255 0.0629139 4.56681
LeftToes  -6.43926e-010 8.38805e-011 -3.16407e-011
186
root  27.2267 40.0656 80.4071 167.919 -37.8495 -178.294
RightUpLeg  -6.87579 3.32313 -3.27904
RightLeg  24.8308 -3.78796 -2.13045
RightFoot  -8.80114 -0.264562 9.20932
RightToes  -1.74624e-010 0 -3.6325e-017
Spine  14.2571 3.37061 8.09726
Spine1  -3.18602 5.51973 -8.10782
HEad  12.6153 -15.8447 -4.47092
LeftShoulder1  3.0027 -4.22713 -32.8316
LeftArm  11.7546 16.8943 -9.83675
LeftForeArm  10.5558 -76.8866 -68.616
LeftHand  -0.305189 1.42334 8.83882
RightShoulder  7.6972 9.62505 51.3391
RightArm  9.66052 4.86468 -4.87418
RightForeArm  -16.7633 64.3767 26.3593
RightHand  3.73712 17.8786 17.8663
LeftUpLeg  18.7247 8.36066 7.02391
LeftLeg  -0.213209 -11.2776 0.635894
LeftFoot  -11.3317 0.0677949 4.39102
LeftToes  -6.43926e-010 8.38805e-011 -3.16407e-011
187
root  27.1718 40.0105 79.9465 168.44 -35.515 -178.304
RightUpLeg  -7.09601 4.3054 -5.18204
RightLeg  18.9212 -6.6761 -2.74801
RightFoot  -7.35539 -0.349355 8.58335
RightToes  -1.74624e-010 0 -3.6325e-017
Spine  14.0476 2.91114 7.92882
Spine1  -2.9549 4.99283 -7.62003
HEad  11.2515 -14.9649 -4.36915
LeftShoulder1  3.04783 -4.33012 -32.8977
LeftArm  12.1666 15.5787 -10.9309
LeftForeArm  5.59697 -76.2955 -62.6603
LeftHand  -0.29644 1.4721 8.68137
RightShoulder  7.19793 8.74802 51.4474
RightArm  9.49664 4.19725 -5.04172
RightForeArm  -15.9766 63.995 25.7928
RightHand  3.82417 18.4112 17.865
LeftUpLeg  19.7461 8.59351 7.46194
LeftLeg  -1.2157 -9.27483 0.698373
LeftFoot  -11.7173 0.0824152 3.64509
LeftToes  -6.43926e-010 8.38805e-011 -3.16407e-011
188
root  27.1446 39.905 79.3785 169.19 -32.7233 -178.376
RightUpLeg  -7.18225 3.28331 -6.24181
RightLeg  11.9437 -6.71653 -3.2656
RightFoot  -5.34579 -0.474594 8.35162
RightToes  -1.74624e-010 0 -3.6325e-017
Spine  13.7996 2.72006 7.73133
Spine1  -2.81633 4.74793 -7.27787
HEad  9.79173 -14.0543 -4.10406
LeftShoulder1  3.10642 -4.49853 -32.8126
LeftArm  12.5628 14.2733 -12.0952
LeftForeArm  1.51007 -75.4753 -56.4373
LeftHand  -0.317997 -0.0746212 6.81914
RightShoulder  6.64829 7.75828 51.6935
RightArm  9.20595 3.61048 -5.21769
RightForeArm  -15.0462 63.7458 25.3962
RightHand  3.91872 18.8891 17.9395
LeftUpLeg  20.5223 8.99662 8.07962
LeftLeg  -1.58445 -7.29021 0.400002
LeftFoot  -12.4722 0.103424 2.88484
LeftToes  -6.43926e-010 8.38805e-011 -3.16407e-011
189
root  27.0954 39.7609 78.7287 169.989 -30.482 -178.649
RightUpLeg  -6.72999 -2.23138 -6.7305
RightLeg  4.13052 -2.83877 -4.03124
RightFoot  -3.121 -0.618296 8.29325
RightToes  -1.74624e-010 0 -3.6325e-017
Spine  13.5977 2.22923 7.42463
Spine1  -2.68378 4.20997 -7.069
HEad  8.33687 -12.9067 -4.00333
LeftShoulder1  3.12922 -4.56219 -32.7893
LeftArm  12.6801 12.6205 -13.4226
LeftForeArm  -3.80795 -74.2813 -50.0097
LeftHand  -0.330452 0.037715 7.22338
RightShoulder  6.16205 6.81907 52.2607
RightArm  8.54827 3.11128 -5.49843
RightForeArm  -13.9329 63.4964 24.9894
RightHand  3.97204 19.3028 17.8717
LeftUpLeg  21.2797 9.0774 8.21356
LeftLeg  -1.7245 -5.23965 0.374309
LeftFoot  -13.4541 0.120714 2.16417
LeftToes  -6.43926e-010 8.38805e-011 -3.16407e-011
190
root  27.1053 39.5407 77.9072 170.959 -27.6397 -178.949
RightUpLeg  -6.73789 -3.0776 -7.16327
RightLeg  -2.45893 -3.20474 -4.18265
RightFoot  -1.75808 -0.724626 8.48581
RightToes  -1.74624e-010 0 -3.6325e-017
Spine  12.9573 2.14266 6.64804
Spine1  -2.30556 3.9859 -6.63569
HEad  6.81254 -11.5904 -3.93158
LeftShoulder1  3.1601 -4.67519 -32.6322
LeftArm  12.5129 11.1163 -14.9031
LeftForeArm  -8.05084 -72.8879 -44.3682
LeftHand  -0.342033 -0.731387 6.6017
RightShoulder  5.69763 5.88874 53.0844
RightArm  7.58724 2.80617 -5.72565
RightForeArm  -13.0661 63.1691 24.5176
RightHand  4.04649 19.7458 17.8788
LeftUpLeg  22.0563 9.13664 8.33145
LeftLeg  -1.58448 -2.48638 0.346684
LeftFoot  -14.7167 0.119082 1.04377
LeftToes  -6.43926e-010 8.38805e-011 -3.16407e-011
